<svg width="24" height="24" viewBox="0 0 24 24" fill="none" xmlns="http://www.w3.org/2000/svg">
<path d="M20.25 0H3.75C1.67893 0 0 1.67893 0 3.75V20.25C0 22.3211 1.67893 24 3.75 24H20.25C22.3211 24 24 22.3211 24 20.25V3.75C24 1.67893 22.3211 0 20.25 0Z" fill="#231E1B"/>
<path fill-rule="evenodd" clip-rule="evenodd" d="M11.9817 6.14404C8.6789 6.14404 6 8.82294 6 12.1257C6 14.7679 7.72477 17.0064 10.0734 17.8138C10.367 17.8505 10.4771 17.667 10.4771 17.5202C10.4771 17.3734 10.4771 17.0064 10.4771 16.4927C8.82569 16.8596 8.45872 15.6853 8.45872 15.6853C8.20183 14.9881 7.79817 14.8046 7.79817 14.8046C7.24771 14.4376 7.83486 14.4376 7.83486 14.4376C8.42202 14.4743 8.75229 15.0615 8.75229 15.0615C9.30275 15.9789 10.1468 15.722 10.4771 15.5752C10.5138 15.1716 10.6972 14.9147 10.844 14.7679C9.52294 14.6211 8.12844 14.1073 8.12844 11.7954C8.12844 11.1349 8.34862 10.6211 8.75229 10.1807C8.7156 10.0706 8.49541 9.4468 8.82569 8.63946C8.82569 8.63946 9.33945 8.49267 10.4771 9.26331C10.9541 9.11652 11.4679 9.07982 11.9817 9.07982C12.4954 9.07982 13.0092 9.15322 13.4862 9.26331C14.6239 8.49267 15.1376 8.63946 15.1376 8.63946C15.4679 9.4468 15.2477 10.0706 15.211 10.2174C15.578 10.6211 15.8349 11.1716 15.8349 11.8321C15.8349 14.144 14.4404 14.6211 13.1193 14.7679C13.3394 14.9514 13.5229 15.3184 13.5229 15.8688C13.5229 16.6762 13.5229 17.3 13.5229 17.5202C13.5229 17.667 13.633 17.8505 13.9266 17.8138C16.3119 17.0064 18 14.7679 18 12.1257C17.9633 8.82294 15.2844 6.14404 11.9817 6.14404Z" fill="white"/>
</svg>
