<svg width="24" height="24" viewBox="0 0 24 24" fill="none" xmlns="http://www.w3.org/2000/svg">
<path d="M20.25 0H3.75C1.67893 0 0 1.67893 0 3.75V20.25C0 22.3211 1.67893 24 3.75 24H20.25C22.3211 24 24 22.3211 24 20.25V3.75C24 1.67893 22.3211 0 20.25 0Z" fill="#2867B2"/>
<path d="M8.7 18H6.15V9.975H8.7V18ZM7.425 8.85C6.6 8.85 6 8.25 6 7.425C6 6.6 6.675 6 7.425 6C8.25 6 8.85 6.6 8.85 7.425C8.85 8.25 8.25 8.85 7.425 8.85ZM18 18H15.45V13.65C15.45 12.375 14.925 12 14.175 12C13.425 12 12.675 12.6 12.675 13.725V18H10.125V9.975H12.525V11.1C12.75 10.575 13.65 9.75 14.925 9.75C16.35 9.75 17.85 10.575 17.85 13.05V18H18Z" fill="white"/>
</svg>
