<svg width="32" height="32" viewBox="0 0 32 32" fill="none" xmlns="http://www.w3.org/2000/svg">
<g filter="url(#filter0_d_27_106)">
<rect x="4" width="24" height="24" rx="8" fill="white"/>
<path d="M15.3333 8.16665C15.3333 7.70641 14.9602 7.33331 14.4999 7.33331H10.6666C9.93019 7.33331 9.33325 7.93027 9.33325 8.66665V17.3333C9.33325 18.0697 9.93019 18.6666 10.6666 18.6666H19.3333C20.0697 18.6666 20.6666 18.0697 20.6666 17.3333V13.5C20.6666 13.0397 20.2935 12.6666 19.8333 12.6666C19.373 12.6666 18.9999 13.0397 18.9999 13.5V17H10.9999V8.99998H14.4999C14.9602 8.99998 15.3333 8.62689 15.3333 8.16665Z" fill="black"/>
<path fill-rule="evenodd" clip-rule="evenodd" d="M19.8213 6.99998H18.1665C17.7063 6.99998 17.3332 6.62689 17.3332 6.16665C17.3332 5.70641 17.7063 5.33331 18.1665 5.33331H21.8332C22.2934 5.33331 22.6665 5.70641 22.6665 6.16665V9.83331C22.6665 10.2936 22.2934 10.6666 21.8332 10.6666C21.3729 10.6666 20.9999 10.2936 20.9999 9.83331V8.17849L15.1784 14C14.8529 14.3254 14.3253 14.3254 13.9999 14C13.6744 13.6745 13.6744 13.1469 13.9999 12.8214L19.8213 6.99998Z" fill="black"/>
</g>
<defs>
<filter id="filter0_d_27_106" x="0" y="0" width="32" height="32" filterUnits="userSpaceOnUse" color-interpolation-filters="sRGB">
<feFlood flood-opacity="0" result="BackgroundImageFix"/>
<feColorMatrix in="SourceAlpha" type="matrix" values="0 0 0 0 0 0 0 0 0 0 0 0 0 0 0 0 0 0 127 0" result="hardAlpha"/>
<feOffset dy="4"/>
<feGaussianBlur stdDeviation="2"/>
<feComposite in2="hardAlpha" operator="out"/>
<feColorMatrix type="matrix" values="0 0 0 0 0 0 0 0 0 0 0 0 0 0 0 0 0 0 0.25 0"/>
<feBlend mode="normal" in2="BackgroundImageFix" result="effect1_dropShadow_27_106"/>
<feBlend mode="normal" in="SourceGraphic" in2="effect1_dropShadow_27_106" result="shape"/>
</filter>
</defs>
</svg>
