<svg width="24" height="23" viewBox="0 0 24 23" fill="none" xmlns="http://www.w3.org/2000/svg">
<path d="M20.25 0H3.75C1.67893 0 0 1.60898 0 3.59375V19.4062C0 21.391 1.67893 23 3.75 23H20.25C22.3211 23 24 21.391 24 19.4062V3.59375C24 1.60898 22.3211 0 20.25 0Z" fill="#1DA1F2"/>
<path d="M18 7.90625C17.55 8.12188 17.1 8.19375 16.575 8.26562C17.1 7.97812 17.475 7.54687 17.625 6.97187C17.175 7.25937 16.65 7.40312 16.05 7.54688C15.6 7.11562 14.925 6.82812 14.25 6.82812C12.675 6.82812 11.475 8.26562 11.85 9.70312C9.825 9.63125 8.025 8.69688 6.75 7.25938C6.075 8.3375 6.45 9.70312 7.5 10.4219C7.125 10.4219 6.75 10.2781 6.375 10.1344C6.375 11.2125 7.2 12.2188 8.325 12.5062C7.95 12.5781 7.575 12.65 7.2 12.5781C7.5 13.5125 8.4 14.2312 9.525 14.2312C8.625 14.8781 7.275 15.2375 6 15.0938C7.125 15.7406 8.4 16.1719 9.75 16.1719C14.325 16.1719 16.875 12.5062 16.725 9.12812C17.25 8.84063 17.7 8.40937 18 7.90625Z" fill="white"/>
</svg>
