<svg width="32" height="26" viewBox="0 0 32 26" fill="none" xmlns="http://www.w3.org/2000/svg">
<path fill-rule="evenodd" clip-rule="evenodd" d="M6.63762 0.608337C4.85255 0.608337 3.53168 2.16207 3.59083 3.84705C3.64759 5.46586 3.57384 7.56246 3.0431 9.27223C2.51046 10.9868 1.61028 12.0733 0.139648 12.2128V13.7873C1.61028 13.9271 2.51046 15.013 3.04304 16.7278C3.57384 18.4376 3.64753 20.5342 3.59077 22.153C3.53162 23.8378 4.85249 25.3917 6.63787 25.3917H24.929C26.714 25.3917 28.0347 23.838 27.9755 22.153C27.9188 20.5342 27.9925 18.4376 28.5233 16.7278C29.0559 15.013 29.9539 13.9266 31.4246 13.7873V12.2128C29.9539 12.073 29.056 10.9871 28.5233 9.27223C27.9925 7.5627 27.9188 5.46586 27.9755 3.84705C28.0347 2.16231 26.714 0.608337 24.929 0.608337H6.63738H6.63762ZM21.3498 15.8641C21.3498 18.1843 19.6095 19.5914 16.7214 19.5914H11.8052C11.6646 19.5914 11.5297 19.5358 11.4302 19.437C11.3308 19.3381 11.2749 19.2039 11.2749 19.0641V6.93605C11.2749 6.7962 11.3308 6.66207 11.4302 6.56318C11.5297 6.46429 11.6646 6.40874 11.8052 6.40874H16.6935C19.1016 6.40874 20.682 7.70592 20.682 9.69752C20.682 11.0954 19.6188 12.3468 18.2644 12.5661V12.639C20.1082 12.8401 21.3498 14.1101 21.3498 15.8641ZM16.1854 8.08029H13.3822V12.0178H15.7432C17.5683 12.0178 18.5747 11.2869 18.5747 9.98056C18.5745 8.75629 17.7093 8.08029 16.1854 8.08029ZM13.3822 13.5801V17.9193H16.2885C18.1888 17.9193 19.1954 17.161 19.1954 15.736C19.1954 14.311 18.1606 13.5798 16.1663 13.5798H13.3822V13.5801Z" fill="#7952B3"/>
</svg>
