<svg width="28" height="32" viewBox="0 0 28 32" fill="none" xmlns="http://www.w3.org/2000/svg">
<path d="M27.7161 0.444458L25.217 28.4412L13.9832 31.5556L2.78043 28.4456L0.283936 0.444458H27.7161Z" fill="#264DE4"/>
<path d="M23.0774 26.6584L25.2131 2.73395H14V29.1751L23.0774 26.6584Z" fill="#2965F1"/>
<path d="M6.00708 13.1192L6.31488 16.5534H14V13.1192H6.00708Z" fill="#EBEBEB"/>
<path d="M14.0001 6.16821H13.9882H5.38867L5.70086 9.60248H14.0001V6.16821Z" fill="#EBEBEB"/>
<path d="M14 25.6112V22.0381L13.9849 22.0422L10.1602 21.0094L9.91568 18.2704H8.05717H6.46826L6.9494 23.6627L13.9841 25.6156L14 25.6112Z" fill="#EBEBEB"/>
<path d="M18.2171 16.5534L17.8185 21.0073L13.9883 22.0411V25.614L21.0286 23.6627L21.0803 23.0825L21.8873 14.0414L21.9711 13.1192L22.5911 6.16821H13.9883V9.60247H18.8275L18.515 13.1192H13.9883V16.5534H18.2171Z" fill="white"/>
</svg>
