<svg width="32" height="32" viewBox="0 0 32 32" fill="none" xmlns="http://www.w3.org/2000/svg">
<path d="M31.7988 0.444458H0.513916V31.5556H31.7988V0.444458Z" fill="#F7DF1E"/>
<path d="M21.5294 24.7502C22.1595 25.7734 22.9794 26.5255 24.4294 26.5255C25.6476 26.5255 26.4257 25.92 26.4257 25.0835C26.4257 24.081 25.6262 23.726 24.2854 23.1427L23.5505 22.8292C21.4291 21.9304 20.0197 20.8045 20.0197 18.4242C20.0197 16.2316 21.6997 14.5625 24.3252 14.5625C26.1943 14.5625 27.5381 15.2094 28.5064 16.9032L26.2171 18.365C25.7131 17.4662 25.1693 17.1121 24.3252 17.1121C23.4641 17.1121 22.9183 17.6553 22.9183 18.365C22.9183 19.242 23.4646 19.5971 24.7259 20.1403L25.4608 20.4534C27.9587 21.5185 29.369 22.6045 29.369 25.046C29.369 27.6781 27.2898 29.12 24.4975 29.12C21.7672 29.12 20.0034 27.8262 19.1403 26.1304L21.5294 24.7502ZM11.1443 25.0035C11.6061 25.8183 12.0262 26.5072 13.0363 26.5072C14.0021 26.5072 14.6114 26.1314 14.6114 24.6702V14.7294H17.5512V24.7097C17.5512 27.7368 15.7665 29.1146 13.1614 29.1146C10.8076 29.1146 9.44445 27.9032 8.75122 26.4442L11.1443 25.0035Z" fill="black"/>
</svg>
