<svg width="15" height="32" viewBox="0 0 15 32" fill="none" xmlns="http://www.w3.org/2000/svg">
<path d="M7.37148 0.529419L8.20634 2.08875C8.39404 2.3765 8.59737 2.63121 8.83688 2.86841C9.53907 3.55798 10.1936 4.29396 10.796 5.0713C12.2105 6.91839 13.1646 8.96962 13.846 11.1881C14.2547 12.5432 14.4766 13.9334 14.4932 15.3391C14.5616 19.5418 13.1128 23.1504 10.1918 26.1495C9.71668 26.625 9.20338 27.0614 8.65701 27.4541C8.36764 27.4541 8.23078 27.2334 8.11151 27.0302C7.89432 26.6535 7.74977 26.2397 7.68529 25.8102C7.58264 25.3017 7.51519 24.7933 7.54843 24.2683V24.0311C7.52496 23.9806 7.26981 0.648993 7.37148 0.529419Z" fill="#599636"/>
<path d="M7.37156 0.477903C7.33735 0.409852 7.30313 0.461376 7.26892 0.494429C7.28554 0.834682 7.16627 1.13799 6.97955 1.42769C6.77426 1.71545 6.50249 1.93613 6.22975 2.17333C4.71449 3.47796 3.52184 5.05381 2.56674 6.81632C1.29589 9.18837 0.640906 11.7305 0.455165 14.4069C0.370116 15.3722 0.762126 18.7786 1.06811 19.7615C1.90297 22.3707 3.40258 24.5571 5.34503 26.4547C5.82209 26.9116 6.33239 27.3355 6.86029 27.7428C7.01377 27.7428 7.03039 27.6067 7.06558 27.5056C7.13287 27.2893 7.18417 27.0683 7.21906 26.8446L7.56121 24.3034L7.37156 0.477903Z" fill="#6CAC48"/>
<path d="M8.20648 28.4865C8.2407 28.0977 8.4284 27.7749 8.63271 27.4531C8.42742 27.3686 8.27492 27.2004 8.15565 27.0128C8.05281 26.8351 7.96768 26.6479 7.90148 26.4538C7.66295 25.7422 7.61211 24.9956 7.54368 24.2684V23.828C7.45863 23.8961 7.44104 24.4716 7.44104 24.5571C7.39129 25.3257 7.28873 26.0899 7.13407 26.8446C7.08324 27.1498 7.04903 27.4541 6.86035 27.7253C6.86035 27.7594 6.86035 27.7934 6.87697 27.8439C7.18393 28.7422 7.268 29.657 7.31982 30.5893V30.9295C7.31982 31.3359 7.3032 31.2503 7.64242 31.3864C7.77928 31.437 7.93178 31.4545 8.06865 31.5556C8.17129 31.5556 8.18791 31.471 8.18791 31.403L8.13708 30.844V29.2847C8.12046 29.0125 8.17129 28.7422 8.20551 28.4875L8.20648 28.4865Z" fill="#C2BFBF"/>
</svg>
