<svg width="29" height="32" viewBox="0 0 29 32" fill="none" xmlns="http://www.w3.org/2000/svg">
<path d="M13.0392 0.77637C13.8106 0.334819 14.8154 0.332824 15.5861 0.77637C19.4637 2.96739 23.3425 5.15498 27.2194 7.34734C27.9486 7.75809 28.4363 8.56961 28.4289 9.40983V22.5919C28.4343 23.4669 27.8984 24.2978 27.1291 24.6992C23.2643 26.8782 19.4014 29.0598 15.5373 31.2387C14.7499 31.6889 13.725 31.6543 12.9622 31.1672C11.8035 30.4955 10.6429 29.8271 9.4841 29.1561C9.24731 29.0149 8.98038 28.9026 8.81318 28.673C8.96099 28.4738 9.22526 28.4489 9.44 28.362C9.92365 28.2082 10.3679 27.9613 10.8122 27.7217C10.9245 27.6448 11.0617 27.6743 11.1694 27.7431C12.1602 28.3112 13.1423 28.8958 14.1364 29.4585C14.3485 29.5809 14.5632 29.4184 14.7445 29.3173C18.5371 27.1738 22.3343 25.0384 26.1262 22.8943C26.2667 22.8267 26.3444 22.6775 26.333 22.5236C26.3356 18.1751 26.3336 13.8259 26.3343 9.47742C26.3504 9.3028 26.2493 9.14224 26.0914 9.07077C22.24 6.9018 18.3906 4.7295 14.5398 2.55997C14.4731 2.5141 14.3941 2.48949 14.3131 2.48938C14.2322 2.48926 14.1531 2.51363 14.0862 2.55931C10.2355 4.7295 6.3867 6.90379 2.53595 9.07266C2.37861 9.14424 2.27302 9.30213 2.29174 9.47742C2.29241 13.8259 2.29174 18.1751 2.29174 22.5243C2.28507 22.5994 2.30156 22.6747 2.339 22.7402C2.37644 22.8056 2.43304 22.858 2.50116 22.8903C3.52875 23.473 4.55767 24.0516 5.58593 24.6323C6.16521 24.9441 6.87645 25.1294 7.51468 24.8905C8.07789 24.6885 8.47268 24.1138 8.46194 23.5158C8.46725 19.1927 8.45928 14.8689 8.46593 10.5465C8.45185 10.3545 8.6339 10.196 8.8205 10.214C9.31424 10.2107 9.80864 10.2074 10.3024 10.2154C10.5085 10.2107 10.6503 10.4174 10.6248 10.6107C10.6228 14.9612 10.6301 19.3118 10.6215 23.6622C10.6228 24.8217 10.1465 26.0833 9.07401 26.6506C7.7528 27.335 6.11978 27.1899 4.81451 26.5336C3.68454 25.9696 2.6062 25.304 1.49629 24.6998C0.724984 24.3006 0.191687 23.4663 0.197117 22.592V9.40983C0.189028 8.55221 0.696175 7.72595 1.44809 7.32119C5.31224 5.14047 9.17573 2.95809 13.0392 0.77637Z" fill="#8CC84B"/>
<path d="M16.4103 9.90765C18.0956 9.79918 19.8998 9.84339 21.4163 10.6736C22.5905 11.3099 23.2415 12.6452 23.2622 13.9496C23.2294 14.1256 23.0455 14.2227 22.8775 14.2106C22.3885 14.2099 21.8994 14.2172 21.4105 14.2073C21.203 14.2152 21.0825 14.024 21.0565 13.8406C20.916 13.2165 20.5756 12.5983 19.9881 12.2972C19.0863 11.8457 18.0406 11.8684 17.0572 11.8778C16.3393 11.916 15.5674 11.9781 14.9592 12.4003C14.4922 12.7201 14.3504 13.3656 14.5171 13.8855C14.6742 14.2588 15.1051 14.3792 15.4577 14.4903C17.4887 15.0214 19.6409 14.9686 21.6332 15.6677C22.458 15.9526 23.2649 16.5067 23.5472 17.3703C23.9165 18.5277 23.7546 19.9112 22.9311 20.8404C22.2633 21.605 21.2907 22.0212 20.3206 22.2473C19.0301 22.535 17.6908 22.5423 16.3802 22.4146C15.1479 22.2741 13.8654 21.9503 12.9141 21.1106C12.1006 20.4043 11.7032 19.3037 11.7427 18.2414C11.7521 18.062 11.9307 17.9369 12.1026 17.9516C12.595 17.9477 13.0874 17.9463 13.5798 17.9523C13.7765 17.9382 13.9223 18.1082 13.9324 18.2936C14.0232 18.8883 14.2467 19.5124 14.7653 19.865C15.766 20.5106 17.0218 20.4664 18.1677 20.4845C19.1171 20.4424 20.1828 20.4296 20.9575 19.8022C21.3663 19.4443 21.4874 18.8455 21.3769 18.3304C21.2572 17.8955 20.8023 17.6928 20.4116 17.5603C18.4066 16.926 16.2303 17.1562 14.2447 16.439C13.4386 16.1541 12.6591 15.6155 12.3494 14.7873C11.9173 13.6152 12.1153 12.1655 13.0251 11.2677C13.9122 10.3746 15.1927 10.0306 16.4103 9.90754V9.90765Z" fill="#8CC84B"/>
</svg>
