<svg width="33" height="34" viewBox="0 0 33 34" fill="none" xmlns="http://www.w3.org/2000/svg">
<path d="M16.4696 19.7429C17.9929 19.7429 19.2277 18.5149 19.2277 17C19.2277 15.4852 17.9929 14.2572 16.4696 14.2572C14.9463 14.2572 13.7114 15.4852 13.7114 17C13.7114 18.5149 14.9463 19.7429 16.4696 19.7429Z" fill="#61DAFB"/>
<path fill-rule="evenodd" clip-rule="evenodd" d="M3.50074 15.5568C2.87527 16.1183 2.66968 16.6079 2.66968 17C2.66968 17.3922 2.87527 17.8817 3.50074 18.4432C4.1258 19.0043 5.0867 19.5554 6.35942 20.0387C8.89784 21.0025 12.472 21.6195 16.4695 21.6195C20.467 21.6195 24.0412 21.0025 26.5796 20.0387C27.8523 19.5554 28.8132 19.0043 29.4383 18.4432C30.0638 17.8817 30.2694 17.3922 30.2694 17C30.2694 16.6079 30.0638 16.1183 29.4383 15.5568C28.8132 14.9957 27.8523 14.4446 26.5796 13.9613C24.0412 12.9975 20.467 12.3806 16.4695 12.3806C12.472 12.3806 8.89784 12.9975 6.35942 13.9613C5.0867 14.4446 4.1258 14.9957 3.50074 15.5568ZM5.64948 12.0916C8.46755 11.0216 12.2933 10.3806 16.4695 10.3806C20.6458 10.3806 24.4715 11.0216 27.2895 12.0916C28.6951 12.6252 29.9016 13.285 30.7743 14.0685C31.6467 14.8516 32.2694 15.8404 32.2694 17C32.2694 18.1596 31.6467 19.1484 30.7743 19.9315C29.9016 20.715 28.6951 21.3748 27.2895 21.9084C24.4715 22.9784 20.6458 23.6195 16.4695 23.6195C12.2933 23.6195 8.46755 22.9784 5.64948 21.9084C4.24396 21.3748 3.03747 20.715 2.1647 19.9315C1.29235 19.1484 0.669678 18.1596 0.669678 17C0.669678 15.8404 1.29235 14.8516 2.1647 14.0685C3.03747 13.285 4.24396 12.6252 5.64948 12.0916Z" fill="#61DAFB"/>
<path fill-rule="evenodd" clip-rule="evenodd" d="M11.2501 5.11165C10.4494 4.85406 9.91755 4.92048 9.57179 5.11899C9.22603 5.31751 8.90225 5.74236 8.72623 6.56073C8.55019 7.37917 8.55071 8.4815 8.76609 9.81836C9.19569 12.4849 10.4449 15.8702 12.4431 19.3118C14.4412 22.7535 16.7647 25.522 18.8721 27.2252C19.9286 28.0791 20.8883 28.6307 21.6891 28.8884C22.4898 29.146 23.0217 29.0795 23.3674 28.881C23.7132 28.6825 24.037 28.2577 24.213 27.4393C24.389 26.6208 24.3885 25.5185 24.1731 24.1817C23.7435 21.5151 22.4943 18.1298 20.4962 14.6882C18.498 11.2465 16.1745 8.47805 14.0671 6.77479C13.0106 5.92088 12.0509 5.36927 11.2501 5.11165ZM15.3279 5.22634C17.6699 7.11925 20.1419 10.0947 22.2306 13.6924C24.3193 17.29 25.6746 20.9067 26.152 23.8701C26.3901 25.3483 26.4188 26.718 26.1728 27.8618C25.9267 29.0057 25.3772 30.0333 24.3716 30.6106C23.366 31.188 22.1963 31.1474 21.0772 30.7874C19.958 30.4274 18.7796 29.7178 17.6114 28.7737C15.2693 26.8808 12.7973 23.9053 10.7086 20.3076C8.61989 16.71 7.26468 13.0933 6.78724 10.1299C6.5491 8.65174 6.52044 7.28205 6.76646 6.13823C7.01249 4.99436 7.56199 3.96673 8.56761 3.38936C9.57323 2.81199 10.7429 2.85257 11.8621 3.21262C12.9812 3.57265 14.1597 4.28218 15.3279 5.22634Z" fill="#61DAFB"/>
<path fill-rule="evenodd" clip-rule="evenodd" d="M24.2129 6.56075C24.0369 5.74238 23.7131 5.31753 23.3674 5.11901C23.0216 4.9205 22.4897 4.85408 21.689 5.11167C20.8883 5.36929 19.9286 5.9209 18.872 6.77481C16.7646 8.47807 14.4411 11.2466 12.443 14.6882C10.4449 18.1299 9.19563 21.5151 8.76603 24.1817C8.55065 25.5185 8.55013 26.6209 8.72617 27.4393C8.90219 28.2577 9.22597 28.6825 9.57173 28.881C9.91749 29.0796 10.4494 29.146 11.2501 28.8884C12.0508 28.6308 13.0106 28.0792 14.0671 27.2252C16.1745 25.522 18.498 22.7535 20.4961 19.3118C22.4942 15.8702 23.7435 12.4849 24.1731 9.81838C24.3885 8.48152 24.389 7.37919 24.2129 6.56075ZM26.1519 10.1299C25.6745 13.0934 24.3193 16.71 22.2306 20.3077C20.1418 23.9053 17.6699 26.8808 15.3278 28.7737C14.1596 29.7179 12.9811 30.4274 11.862 30.7874C10.7428 31.1475 9.57317 31.188 8.56755 30.6107C7.56193 30.0333 7.01243 29.0057 6.7664 27.8618C6.52038 26.718 6.54904 25.3483 6.78718 23.8701C7.26462 20.9067 8.61983 17.2901 10.7086 13.6924C12.7973 10.0947 15.2693 7.11927 17.6113 5.22636C18.7795 4.2822 19.958 3.57267 21.0771 3.21264C22.1963 2.85259 23.3659 2.81201 24.3716 3.38938C25.3772 3.96675 25.9267 4.99437 26.1727 6.13825C26.4187 7.28206 26.3901 8.65176 26.1519 10.1299Z" fill="#61DAFB"/>
</svg>
