<svg width="32" height="30" viewBox="0 0 32 30" fill="none" xmlns="http://www.w3.org/2000/svg">
<path d="M21.6271 20.8596C22.7751 20.7407 23.6461 19.751 23.6065 18.5632C23.567 17.3755 22.5772 16.4253 21.3895 16.4253H21.3104C20.0829 16.4649 19.1328 17.4942 19.1724 18.7215C19.212 19.3154 19.4495 19.8301 19.8058 20.1864C18.4598 22.8391 16.4011 24.7791 13.3131 26.4023C11.2148 27.5109 9.03737 27.9068 6.85995 27.6298C5.07835 27.3922 3.69269 26.6004 2.82158 25.2938C1.55477 23.3538 1.43604 21.2554 2.505 19.1571C3.25726 17.6526 4.44483 16.544 5.19709 15.9897C5.03874 15.475 4.80115 14.6041 4.68242 13.9706C-1.0582 18.1278 -0.46429 23.7497 1.27769 26.4023C2.58412 28.382 5.23671 29.6093 8.16638 29.6093C8.95813 29.6093 9.74989 29.5301 10.5418 29.3322C15.6094 28.3424 19.4496 25.3334 21.6271 20.8596ZM28.595 15.9502C25.5861 12.4265 21.152 10.4866 16.0844 10.4866H15.451C15.0947 9.77393 14.3424 9.29876 13.5111 9.29876H13.4318C12.2046 9.33838 11.2545 10.3677 11.294 11.5951C11.3336 12.7828 12.3234 13.7331 13.5111 13.7331H13.5902C14.4612 13.6934 15.2134 13.1392 15.5301 12.3869H16.2428C19.2517 12.3869 22.1021 13.2579 24.6756 14.9604C26.655 16.2669 28.0803 17.9694 28.8721 20.0281C29.5451 21.6909 29.5055 23.3142 28.7928 24.7C27.6844 26.7983 25.8237 27.9465 23.369 27.9465C21.7854 27.9465 20.281 27.4713 19.4891 27.115C19.0537 27.5109 18.2618 28.1443 17.7075 28.5404C19.41 29.3321 21.152 29.7677 22.8147 29.7677C26.6154 29.7677 29.4263 27.6693 30.4953 25.571C31.6434 23.2746 31.5641 19.3154 28.595 15.9502ZM8.48308 21.5325C8.5227 22.7203 9.51242 23.6704 10.7001 23.6704H10.7794C12.0067 23.6309 12.9568 22.6014 12.9171 21.3741C12.8777 20.1863 11.8878 19.2362 10.7001 19.2362H10.621C10.5418 19.2362 10.4229 19.2362 10.3439 19.2757C8.72067 16.5835 8.04765 13.6538 8.28523 10.4864C8.44346 8.11094 9.23534 6.05214 10.621 4.34966C11.7691 2.88476 13.9861 2.17213 15.4906 2.13263C19.6871 2.05339 21.4686 7.27945 21.5874 9.37787C22.1021 9.4966 22.9731 9.77381 23.567 9.97178C23.0918 3.55803 19.1328 0.2323 15.3323 0.2323C11.7691 0.2323 8.48308 2.80577 7.17653 6.60655C5.35544 11.6743 6.54313 16.544 8.76016 20.3844C8.56232 20.6615 8.44346 21.097 8.48308 21.5326V21.5325Z" fill="#764ABC"/>
</svg>
