<svg width="32" height="32" viewBox="0 0 32 32" fill="none" xmlns="http://www.w3.org/2000/svg">
<path d="M31.4115 5.04919L16.9839 31.1494C16.686 31.6884 15.9207 31.6915 15.6183 31.1553L0.904743 5.05161C0.575295 4.46732 1.06923 3.75946 1.7238 3.87792L16.1669 6.48955C16.259 6.5062 16.3534 6.50604 16.4454 6.48906L30.5864 3.88156C31.2388 3.76128 31.735 4.46367 31.4115 5.04919Z" fill="url(#paint0_linear_41_86)"/>
<path d="M23.0469 0.452118L12.3702 2.56866C12.2849 2.58557 12.2075 2.63068 12.1503 2.6969C12.0931 2.76312 12.0593 2.8467 12.0542 2.93449L11.3974 14.1564C11.3938 14.2179 11.4044 14.2795 11.4284 14.3361C11.4524 14.3928 11.4892 14.443 11.5357 14.4828C11.5823 14.5226 11.6373 14.5509 11.6966 14.5654C11.7558 14.5799 11.8176 14.5802 11.877 14.5664L14.8496 13.8724C15.1277 13.8074 15.379 14.0553 15.3218 14.3382L14.4386 18.7134C14.3793 19.0079 14.6524 19.2596 14.9367 19.1722L16.7727 18.6079C17.0573 18.5205 17.3309 18.773 17.2706 19.0677L15.8672 25.9401C15.7793 26.37 16.3445 26.6044 16.5802 26.2359L16.7377 25.9897L25.4377 8.4243C25.5835 8.1302 25.3322 7.79484 25.013 7.85723L21.9531 8.45464C21.6656 8.51072 21.421 8.23981 21.5021 7.9553L23.4992 0.951335C23.5804 0.666103 23.3348 0.395071 23.047 0.452118H23.0469Z" fill="url(#paint1_linear_41_86)"/>
<defs>
<linearGradient id="paint0_linear_41_86" x1="0.545499" y1="5.9837" x2="16.3406" y2="27.1872" gradientUnits="userSpaceOnUse">
<stop stop-color="#41D1FF"/>
<stop offset="1" stop-color="#BD34FE"/>
</linearGradient>
<linearGradient id="paint1_linear_41_86" x1="17.5056" y1="1.0268" x2="20.7802" y2="23.2306" gradientUnits="userSpaceOnUse">
<stop stop-color="#FFEA83"/>
<stop offset="0.083" stop-color="#FFDD35"/>
<stop offset="1" stop-color="#FFA800"/>
</linearGradient>
</defs>
</svg>
