<svg width="32" height="32" viewBox="0 0 32 32" fill="none" xmlns="http://www.w3.org/2000/svg">
<path d="M0.678809 11.3437C0.678809 11.3437 -0.0789414 10.7975 0.830359 10.0681L2.9489 8.17376C2.9489 8.17376 3.5551 7.53598 4.19603 8.09167L23.746 22.8931V29.9907C23.746 29.9907 23.7365 31.1052 22.3063 30.9821L0.678809 11.3437Z" fill="#2489CA"/>
<path d="M5.71791 15.9187L0.678862 20.4999C0.678862 20.4999 0.161066 20.8851 0.678862 21.5734L3.01842 23.7014C3.01842 23.7014 3.5741 24.2981 4.395 23.6193L9.73714 19.5685L5.71791 15.9187Z" fill="#1070B3"/>
<path d="M14.5646 15.9565L23.806 8.89996L23.746 1.84024C23.746 1.84024 23.3513 0.299474 22.0347 1.10143L9.73706 12.2941L14.5646 15.9565Z" fill="#0877B9"/>
<path d="M22.3062 30.9916C22.8429 31.5409 23.4933 31.361 23.4933 31.361L30.6951 27.8122C31.617 27.1839 31.4876 26.404 31.4876 26.404V5.21224C31.4876 4.28083 30.5341 3.95879 30.5341 3.95879L24.2921 0.949884C22.9282 0.106885 22.0347 1.10143 22.0347 1.10143C22.0347 1.10143 23.1839 0.274222 23.7459 1.84024V29.8613C23.7459 30.0539 23.7049 30.2433 23.6228 30.4138C23.4586 30.7453 23.1018 31.0547 22.2462 30.9253L22.3062 30.9916Z" fill="#3C99D4"/>
</svg>
